<svg xmlns="http://www.w3.org/2000/svg" xmlns:xlink="http://www.w3.org/1999/xlink" version="1.1" x="0px" y="0px" viewBox="0 0 100 125" enable-background="new 0 0 100 100" xml:space="preserve"><g><path d="M61.375,17.5c-17.949,0-32.5,14.551-32.5,32.5s14.551,32.5,32.5,32.5s32.5-14.551,32.5-32.5S79.324,17.5,61.375,17.5z    M61.144,46.935c0.078-0.005,0.152-0.023,0.231-0.023c0.333,0,0.649,0.063,0.954,0.152l9.811-9.811   c0.635-0.635,1.663-0.635,2.298,0c0.635,0.634,0.635,1.664,0,2.298l-9.812,9.812c0.09,0.305,0.152,0.62,0.152,0.953   c0,1.881-1.523,3.404-3.403,3.404s-3.403-1.523-3.403-3.404c0-0.566,0.151-1.091,0.396-1.561l-5.963-5.963   c-0.635-0.634-0.635-1.664,0-2.298c0.635-0.635,1.663-0.635,2.298,0L61.144,46.935z M61.375,75.768   c-14.035,0-25.452-11.418-25.452-25.452c0-9.052,4.9-17.456,12.638-21.985l-4.15-1.476l0.933-2.622l8.8,3.131l-3.131,8.8   l-2.621-0.931l1.358-3.819c-6.032,3.727-9.989,10.185-10.516,17.277h1.717c0.898,0,1.625,0.727,1.625,1.625   c0,0.897-0.727,1.625-1.625,1.625h-1.696c0.799,10.945,9.551,19.701,20.495,20.499V70.74c0-0.897,0.728-1.625,1.625-1.625   S63,69.843,63,70.74v1.699c10.943-0.798,19.695-9.554,20.494-20.499h-1.695c-0.897,0-1.625-0.728-1.625-1.625   c0-0.898,0.728-1.625,1.625-1.625h1.702c-0.364-5.006-2.387-9.729-5.817-13.441c-0.609-0.659-0.569-1.687,0.09-2.296   c0.66-0.608,1.688-0.568,2.297,0.091c4.357,4.713,6.757,10.848,6.757,17.272C86.827,64.35,75.41,75.768,61.375,75.768z"/><path d="M12.625,39h10c0.829,0,1.5-0.671,1.5-1.5s-0.671-1.5-1.5-1.5h-10c-0.829,0-1.5,0.671-1.5,1.5S11.796,39,12.625,39z"/><path d="M25.125,48.5h-17.5c-0.829,0-1.5,0.671-1.5,1.5s0.671,1.5,1.5,1.5h17.5c0.829,0,1.5-0.671,1.5-1.5S25.954,48.5,25.125,48.5   z"/><path d="M22.625,61h-10c-0.829,0-1.5,0.672-1.5,1.5s0.671,1.5,1.5,1.5h10c0.829,0,1.5-0.672,1.5-1.5S23.454,61,22.625,61z"/></g><text x="0" y="115" fill="#000000" font-size="5px" font-weight="bold" font-family="'Helvetica Neue', Helvetica, Arial-Unicode, Arial, Sans-serif">Created by Ralf Schmitzer</text><text x="0" y="120" fill="#000000" font-size="5px" font-weight="bold" font-family="'Helvetica Neue', Helvetica, Arial-Unicode, Arial, Sans-serif">from the Noun Project</text></svg>